<svg width="36" height="25" viewBox="0 0 36 25" fill="none" xmlns="http://www.w3.org/2000/svg">
<path d="M1.77715 24.5705H1.26562V18.6396H1.77715V24.5705ZM5.55134 18.6396C6.04904 18.6396 6.49143 18.7087 6.89235 18.847C7.29327 18.9852 7.62507 19.1788 7.90157 19.4414C8.17807 19.7041 8.38544 20.0083 8.53751 20.3815C8.68959 20.741 8.75871 21.1557 8.75871 21.6119C8.75871 22.0682 8.68959 22.4829 8.53751 22.8424C8.38544 23.2018 8.17807 23.5198 7.90157 23.7824C7.62507 24.0451 7.29327 24.2387 6.89235 24.3769C6.49143 24.5152 6.04904 24.5843 5.55134 24.5843H3.38083V18.6534H5.55134V18.6396ZM3.90618 19.1235V24.0728H5.55134C5.97991 24.0728 6.36701 24.0175 6.69881 23.893C7.0306 23.7824 7.3071 23.6166 7.5283 23.3954C7.7495 23.1742 7.92922 22.9253 8.03982 22.6212C8.15042 22.317 8.21954 21.9714 8.21954 21.5981C8.21954 21.2248 8.16424 20.8792 8.03982 20.5751C7.92922 20.2709 7.7495 20.0083 7.5283 19.7871C7.3071 19.5659 7.0306 19.4 6.69881 19.2894C6.36701 19.1788 5.97991 19.1096 5.55134 19.1096H3.90618V19.1235ZM14.7725 18.5705C15.0214 18.5705 15.2702 18.5981 15.5053 18.6534C15.7403 18.7087 15.9615 18.7917 16.1689 18.9023C16.3762 19.0129 16.5698 19.1373 16.7357 19.2894C16.9016 19.4414 17.0536 19.6073 17.1642 19.8009L16.7357 20.0912C16.6389 19.9391 16.5145 19.8009 16.3762 19.6765C16.238 19.552 16.0859 19.4414 15.92 19.3585C15.7541 19.2755 15.5744 19.2064 15.3808 19.1511C15.1873 19.0958 14.9937 19.082 14.7864 19.082C14.4269 19.082 14.1089 19.1373 13.8048 19.2617C13.5006 19.3861 13.238 19.552 13.0168 19.7732C12.7956 19.9944 12.6159 20.2571 12.4914 20.5751C12.367 20.8792 12.2979 21.2248 12.2979 21.6119C12.2979 21.9852 12.367 22.3308 12.4914 22.6488C12.6159 22.953 12.7956 23.2295 13.0168 23.4507C13.238 23.6718 13.5006 23.8516 13.8048 23.9622C14.1089 24.0866 14.4407 24.1419 14.7864 24.1419C14.9937 24.1419 15.1873 24.1142 15.3808 24.0728C15.5744 24.0313 15.7541 23.9622 15.92 23.8792C16.0859 23.7963 16.238 23.6857 16.3762 23.5613C16.5145 23.4368 16.6389 23.2986 16.7357 23.1327L17.1642 23.4368C17.0398 23.6165 16.8877 23.7963 16.7218 23.9345C16.5559 24.0866 16.3624 24.211 16.1689 24.3078C15.9615 24.4184 15.7403 24.4875 15.5053 24.5428C15.2702 24.5981 15.0214 24.6258 14.7725 24.6258C14.344 24.6258 13.943 24.5566 13.5698 24.4046C13.1965 24.2525 12.8785 24.0451 12.602 23.7824C12.3255 23.5198 12.1182 23.2018 11.9661 22.8285C11.814 22.4553 11.7311 22.0543 11.7311 21.5981C11.7311 21.1557 11.814 20.741 11.9661 20.3677C12.1182 19.9944 12.3394 19.6765 12.602 19.4138C12.8785 19.1511 13.1965 18.9437 13.5698 18.7917C13.943 18.6396 14.344 18.5705 14.7725 18.5705ZM18.7679 21.2663C18.8509 21.1419 18.9338 21.0175 19.0444 20.9207C19.155 20.8239 19.2656 20.741 19.3901 20.6857C19.5145 20.6304 19.6389 20.5751 19.7771 20.5474C19.9154 20.5198 20.0536 20.506 20.1781 20.506C20.4269 20.506 20.6481 20.5474 20.8555 20.6166C21.0629 20.6857 21.2426 20.7963 21.3808 20.9345C21.5329 21.0728 21.6435 21.2387 21.7265 21.446C21.8094 21.6396 21.8509 21.8746 21.8509 22.1096V24.5566H21.367V22.2617C21.367 22.0543 21.3394 21.8746 21.2841 21.7225C21.2288 21.5566 21.1458 21.4184 21.0352 21.3078C20.9246 21.1972 20.7864 21.1142 20.6343 21.0451C20.4822 20.9898 20.2887 20.9622 20.0951 20.9622C19.9154 20.9622 19.7357 20.9898 19.5698 21.0589C19.4039 21.1281 19.2656 21.211 19.1412 21.3354C19.0168 21.446 18.92 21.5981 18.8509 21.7502C18.7818 21.9161 18.7403 22.0958 18.7403 22.2894V24.5566H18.2841V18.446H18.7679V21.2663ZM24.7403 20.5198C25.003 20.5198 25.2518 20.5751 25.4868 20.6718C25.7218 20.7686 25.9154 20.9069 26.0813 21.0866C26.2472 21.2663 26.3716 21.4875 26.4684 21.7364C26.5652 21.9852 26.6205 22.2617 26.6205 22.552C26.6205 22.5935 26.6205 22.6212 26.6205 22.6626C26.6205 22.6903 26.6205 22.7318 26.6205 22.7594H23.2748C23.2887 22.9944 23.344 23.2018 23.4269 23.3815C23.5099 23.5613 23.6205 23.7133 23.7587 23.8377C23.897 23.9622 24.0629 24.0589 24.2288 24.1281C24.4085 24.1972 24.602 24.2248 24.8094 24.2248C25.0859 24.2248 25.3348 24.1695 25.556 24.0728C25.7771 23.976 25.9707 23.8377 26.1504 23.658L26.4131 23.9898C26.2887 24.1142 26.1504 24.2248 26.026 24.3078C25.8877 24.3907 25.7633 24.4599 25.6251 24.5152C25.4868 24.5705 25.3486 24.5981 25.2103 24.6258C25.0721 24.6534 24.92 24.6534 24.7818 24.6534C24.4914 24.6534 24.2288 24.5981 23.9799 24.5013C23.7311 24.4046 23.5237 24.2663 23.344 24.0728C23.1642 23.893 23.026 23.6719 22.9292 23.423C22.8324 23.1742 22.7771 22.8977 22.7771 22.5935C22.7771 22.2894 22.8324 22.0129 22.9292 21.764C23.026 21.5152 23.1642 21.294 23.344 21.1142C23.5237 20.9345 23.7311 20.7963 23.9661 20.6857C24.2011 20.5751 24.45 20.5198 24.7403 20.5198ZM24.7265 20.9483C24.5191 20.9483 24.3394 20.9898 24.1735 21.0589C24.0076 21.1281 23.8555 21.2248 23.7311 21.3493C23.6066 21.4737 23.496 21.6119 23.4131 21.7917C23.3301 21.9576 23.2748 22.1511 23.261 22.3447H26.1089C26.0951 22.1373 26.0398 21.9437 25.9707 21.7778C25.8877 21.6119 25.791 21.4599 25.6665 21.3354C25.5421 21.211 25.4039 21.1142 25.238 21.0451C25.0859 20.976 24.92 20.9483 24.7265 20.9483ZM29.3854 20.5198C29.6758 20.5198 29.9523 20.5751 30.2149 20.6718C30.4638 20.7824 30.685 20.9345 30.8647 21.1281L30.5467 21.4599C30.3947 21.3078 30.2149 21.1834 30.0214 21.1004C29.8278 21.0175 29.6066 20.976 29.3716 20.976C29.1504 20.976 28.9569 21.0175 28.7633 21.1004C28.5698 21.1834 28.4177 21.294 28.2795 21.4322C28.1412 21.5705 28.0306 21.7502 27.9615 21.9437C27.8785 22.1373 27.8509 22.3585 27.8509 22.5797C27.8509 22.8147 27.8924 23.0221 27.9615 23.2156C28.0444 23.4092 28.1412 23.5751 28.2795 23.7271C28.4177 23.8654 28.5836 23.976 28.7633 24.0589C28.9569 24.1419 29.1504 24.1834 29.3716 24.1834C29.6066 24.1834 29.8278 24.1419 30.0214 24.0451C30.2149 23.9483 30.3947 23.8377 30.5467 23.6857L30.8509 24.0175C30.6712 24.2248 30.45 24.3769 30.2011 24.4737C29.9523 24.5705 29.6758 24.6258 29.3854 24.6258C29.0813 24.6258 28.8048 24.5705 28.556 24.4737C28.3071 24.3631 28.0859 24.2248 27.9062 24.0451C27.7265 23.8654 27.5882 23.6442 27.4776 23.3954C27.3808 23.1465 27.3255 22.87 27.3255 22.5797C27.3255 22.2894 27.3808 22.0129 27.4776 21.764C27.5744 21.5152 27.7126 21.294 27.9062 21.1142C28.0859 20.9345 28.3071 20.7824 28.556 20.6857C28.8186 20.5613 29.0813 20.5198 29.3854 20.5198ZM32.3163 22.2617H32.9661L34.6389 20.5751H35.2472L33.3532 22.4553L35.2887 24.5566H34.6804L32.9661 22.6903H32.3163V24.5566H31.8324V18.446H32.3163V22.2617Z" fill="black"/>
<path d="M10.266 1.7041H5.91113V9.52899H10.266V1.7041Z" fill="#F26522"/>
<path d="M6.18723 5.61661C6.18723 4.02675 6.93377 2.61661 8.08124 1.70416C7.23792 1.04057 6.1734 0.639648 5.01211 0.639648C2.26096 0.639648 0.0351562 2.86545 0.0351562 5.61661C0.0351562 8.36776 2.26096 10.5936 5.01211 10.5936C6.1734 10.5936 7.23792 10.1926 8.08124 9.52905C6.93377 8.61661 6.18723 7.20647 6.18723 5.61661Z" fill="#E51B24"/>
<path d="M16.141 5.61661C16.141 8.36776 13.9152 10.5936 11.164 10.5936C10.0027 10.5936 8.9382 10.1926 8.09488 9.52905C9.24234 8.61661 9.98889 7.20647 9.98889 5.61661C9.98889 4.02675 9.24234 2.61661 8.08105 1.70416C8.9382 1.04057 10.0027 0.639648 11.164 0.639648C13.9152 0.639648 16.141 2.86545 16.141 5.61661Z" fill="#F99F1C"/>
<path d="M15.671 8.69965V8.53375H15.7401V8.5061H15.5742V8.53375H15.6433V8.69965H15.671ZM15.989 8.69965V8.5061H15.9337L15.8784 8.64435L15.8231 8.5061H15.7678V8.69965H15.8092V8.54758L15.8645 8.672H15.906L15.9613 8.54758V8.69965H15.989Z" fill="black"/>
</svg>
